<svg width="53" height="36" viewBox="0 0 53 36" fill="none" xmlns="http://www.w3.org/2000/svg">
<path d="M26.1839 0.854248L27.3894 11.5717L32.4501 1.35589L29.7304 11.9521L38.3522 2.83167L31.8653 12.6909L43.547 5.19582L33.67 13.745L47.7328 8.31094L35.0397 15.0533L50.6663 11.996L35.8946 16.5396L52.1769 16.0368L36.1853 18.1177L52.1769 20.1986L35.8946 19.6957L50.6663 24.2394L35.0397 21.1821L47.7328 27.9244L33.67 22.4903L43.547 31.0396L31.8653 23.5445L38.3522 33.4037L29.7304 24.2832L32.4501 34.8795L27.3894 24.6637L26.1839 35.3811L24.9784 24.6637L19.9177 34.8795L22.6374 24.2832L14.0156 33.4037L20.5025 23.5445L8.82076 31.0396L18.6978 22.4903L4.63497 27.9244L17.3281 21.1821L1.70153 24.2394L16.4732 19.6957L0.19091 20.1986L16.1825 18.1177L0.19091 16.0368L16.4732 16.5396L1.70153 11.996L17.3281 15.0533L4.63497 8.31094L18.6978 13.745L8.82076 5.19582L20.5025 12.6909L14.0156 2.83167L22.6374 11.9521L19.9177 1.35589L24.9784 11.5717L26.1839 0.854248Z" fill="url(#paint0_linear_111_170)"/>
<defs>
<linearGradient id="paint0_linear_111_170" x1="26.1839" y1="35.3811" x2="26.1839" y2="9.48608" gradientUnits="userSpaceOnUse">
<stop stop-color="#EF7614"/>
<stop offset="1" stop-color="#F8AB1A"/>
</linearGradient>
</defs>
</svg>
